<?xml version="1.0" standalone="no"?>
<!DOCTYPE svg PUBLIC "-//W3C//DTD SVG 20010904//EN"
 "http://www.w3.org/TR/2001/REC-SVG-20010904/DTD/svg10.dtd">
<svg version="1.0" xmlns="http://www.w3.org/2000/svg"
 width="128.000000pt" height="128.000000pt" viewBox="0 0 128.000000 128.000000"
 preserveAspectRatio="xMidYMid meet">

<g transform="translate(0.000000,128.000000) scale(0.100000,-0.100000)"
fill="#000000" stroke="none">
<path d="M260 635 l0 -515 64 0 65 0 3 43 3 42 243 3 242 2 0 -45 0 -45 70 0
70 0 0 515 0 515 -380 0 -380 0 0 -515z m670 240 l0 -165 -290 0 -290 0 0 165
0 165 290 0 290 0 0 -165z m0 -385 l0 -170 -290 0 -290 0 0 170 0 170 290 0
290 0 0 -170z"/>
<path d="M740 916 c-5 -11 -22 -55 -40 -96 -29 -70 -30 -75 -13 -87 23 -18 32
-6 69 82 l29 70 5 -80 c4 -72 7 -80 25 -80 19 0 20 8 23 107 l3 107 -46 -1
c-38 0 -48 -5 -55 -22z"/>
<path d="M862 833 c3 -100 4 -108 23 -108 19 0 20 8 23 108 l3 107 -26 0 -26
0 3 -107z"/>
</g>
</svg>
