<svg xmlns="http://www.w3.org/2000/svg" version="1.1" xmlns:xlink="http://www.w3.org/1999/xlink" xmlns:svgjs="http://svgjs.dev/svgjs" width="1000" height="1000" viewBox="0 0 1000 1000"><rect width="1000" height="1000" fill="#000000"></rect><g transform="matrix(0.7,0,0,0.7,149.57576467708753,417.9957054306826)"><svg viewBox="0 0 396 93" data-background-color="#fdfbe2" preserveAspectRatio="xMidYMid meet" height="234" width="1000" xmlns="http://www.w3.org/2000/svg" xmlns:xlink="http://www.w3.org/1999/xlink"><defs></defs><g id="tight-bounds" transform="matrix(1,0,0,1,0.2399959826761915,0.05921486536337284)"><svg viewBox="0 0 395.52 92.88157026927325" height="92.88157026927325" width="395.52"><g><svg viewBox="0 0 550.7430338062287 129.3332266251668" height="92.88157026927325" width="395.52"><g transform="matrix(1,0,0,1,155.22303380622876,37.24979925581568)"><svg viewBox="0 0 395.52 54.833628113535426" height="54.833628113535426" width="395.52"><g><svg viewBox="0 0 395.52 54.833628113535426" height="54.833628113535426" width="395.52"><g><svg viewBox="0 0 395.52 54.833628113535426" height="54.833628113535426" width="395.52"><g transform="matrix(1,0,0,1,0,0)"><svg width="395.52" viewBox="2.5 -35.45000076293945 258.92999267578125 35.900001525878906" height="54.833628113535426" data-palette-color="#454545"><path d="M5.15-33.95L2.5-34.25 2.55-35 13.25-35Q24.05-35 24.05-26.55L24.05-26.55Q24.05-23.3 19.75-19.45L19.75-19.45Q26.1-17.9 26.1-10.35L26.1-10.35Q26.1-4.45 23.13-2.23 20.15 0 14 0L14 0 12.55 0 2.5 0.05 2.55-0.65 5.15-1Q5.65-1.05 5.75-1.65L5.75-1.65 5.75-33.25Q5.65-33.9 5.15-33.95L5.15-33.95ZM15-19.15L15-19.15 9.15-19.15 9.15-0.75 13.75-0.75Q22.7-0.75 22.7-10.15L22.7-10.15Q22.7-14.95 20.78-17.05 18.85-19.15 15-19.15ZM9.15-19.9L15.25-19.9Q17.1-19.9 18.45-19.7L18.45-19.7Q20.65-23.15 20.65-26.25L20.65-26.25Q20.65-34.25 13-34.25L13-34.25 9.15-34.25 9.15-19.9ZM29.35-17.4L29.35-17.4Q29.35-25.65 33.57-30.55 37.8-35.45 44.1-35.45L44.1-35.45Q58.85-35.45 58.85-17.4L58.85-17.4Q58.85-9.1 54.65-4.33 50.45 0.45 44.1 0.45L44.1 0.45Q29.35 0.45 29.35-17.4ZM32.75-17.5L32.75-17.5Q32.75-0.55 44.1-0.55L44.1-0.55Q49-0.55 52.22-5.05 55.45-9.55 55.45-17.5L55.45-17.5Q55.45-34.45 44.1-34.45L44.1-34.45Q39.25-34.45 36-29.9 32.75-25.35 32.75-17.5ZM62.84-17.4L62.84-17.4Q62.84-25.65 67.07-30.55 71.3-35.45 77.59-35.45L77.59-35.45Q92.34-35.45 92.34-17.4L92.34-17.4Q92.34-9.1 88.14-4.33 83.94 0.45 77.59 0.45L77.59 0.45Q62.84 0.45 62.84-17.4ZM66.25-17.5L66.25-17.5Q66.25-0.55 77.59-0.55L77.59-0.55Q82.5-0.55 85.72-5.05 88.94-9.55 88.94-17.5L88.94-17.5Q88.94-34.45 77.59-34.45L77.59-34.45Q72.75-34.45 69.5-29.9 66.25-25.35 66.25-17.5ZM111.89-34.95L121.64-35Q121.64-34.95 121.69-34.25L121.69-34.25 117.44-33.85 105.29-19.7 120.09-0.9 122.44-0.75Q122.44-0.7 122.39 0L122.39 0 116.99 0.05 102.54-18.2 102.49-18.25 102.49-0.95 105.89-0.75Q105.89-0.7 105.84 0L105.84 0 95.84 0.05Q95.84-0.4 95.89-0.65L95.89-0.65 98.49-1Q98.99-1.05 99.09-1.65L99.09-1.65 99.09-33.3Q98.89-33.9 98.49-33.95L98.49-33.95 95.89-34.2Q95.84-34.5 95.84-34.95L95.84-34.95 105.84-35Q105.84-34.95 105.89-34.25L105.89-34.25 102.49-33.95 102.49-18.3 102.59-18.35 114.84-33Q115.24-33.8 114.54-33.95L114.54-33.95 111.94-34.2Q111.89-34.5 111.89-34.95L111.89-34.95ZM102.49-18.25L102.49-18.3 102.49-18.25ZM134.59-0.95L134.59-0.95Q138.29-0.95 141.09-3.13 143.89-5.3 143.89-9.75L143.89-9.75Q143.89-11.75 142.91-13.18 141.94-14.6 140.34-15.38 138.74-16.15 136.84-16.73 134.94-17.3 133.04-17.95 131.14-18.6 129.54-19.5 127.94-20.4 126.97-22.05 125.99-23.7 125.99-26L125.99-26Q125.99-30 128.74-32.55 131.49-35.1 136.09-35.1 140.69-35.1 144.89-34.05L144.89-34.05 145.44-27.8 144.49-27.4 143.99-31.35Q140.29-34.1 137.04-34.1 133.79-34.1 131.59-32.13 129.39-30.15 129.39-26.2L129.39-26.2Q129.39-23.9 131.24-22.55 133.09-21.2 135.72-20.45 138.34-19.7 140.97-18.75 143.59-17.8 145.44-15.55 147.29-13.3 147.29-9.7L147.29-9.7Q147.29-4.85 143.84-2.4 140.39 0.05 134.74 0.05 129.09 0.05 124.94-3L124.94-3 124.99-8.3 125.94-8.55 126.04-5.7Q127.39-3.8 129.74-2.38 132.09-0.95 134.59-0.95ZM159.29-1.65L159.29-34 150.69-34 149.89-27.4 148.94-27.8 149.44-34 149.39-34 149.49-34.4 149.54-35 149.64-34.95 149.64-35 172.34-35 172.99-27.8 171.99-27.4 171.19-34 162.44-34 162.44-0.95 166.09-0.75Q166.09-0.7 166.04 0L166.04 0 156.04 0.05Q156.04-0.4 156.09-0.65L156.09-0.65 158.69-1Q159.19-1.05 159.29-1.65L159.29-1.65ZM174.04-17.4L174.04-17.4Q174.04-25.65 178.26-30.55 182.49-35.45 188.79-35.45L188.79-35.45Q203.54-35.45 203.54-17.4L203.54-17.4Q203.54-9.1 199.34-4.33 195.14 0.45 188.79 0.45L188.79 0.45Q174.04 0.45 174.04-17.4ZM177.44-17.5L177.44-17.5Q177.44-0.55 188.79-0.55L188.79-0.55Q193.69-0.55 196.91-5.05 200.14-9.55 200.14-17.5L200.14-17.5Q200.14-34.45 188.79-34.45L188.79-34.45Q183.94-34.45 180.69-29.9 177.44-25.35 177.44-17.5ZM209.53-33.95L206.88-34.25 206.93-35 219.08-35Q224.23-35 227.03-32.75 229.83-30.5 229.83-26.05L229.83-26.05Q229.83-23.15 227.61-20 225.38-16.85 223.43-15.95L223.43-15.95 232.68-0.9 235.13-0.75Q235.13-0.7 235.08 0L235.08 0 229.63 0.05 220.13-15.35 213.48-15.35 213.48-0.95 216.98-0.75Q216.98-0.7 216.93 0L216.93 0 206.88 0.05 206.93-0.65 209.53-1Q209.88-1.05 210.08-1.45L210.08-1.45 210.08-33.45Q209.93-33.9 209.53-33.95L209.53-33.95ZM218.83-34.25L218.83-34.25 213.48-34.25 213.48-16.1 222.03-16.1Q224.63-19.05 225.53-21.33 226.43-23.6 226.43-25.75L226.43-25.75Q226.43-29.95 224.48-32.1 222.53-34.25 218.83-34.25ZM240.58-33.95L237.93-34.25 237.98-35 259.38-35 259.33-34.85 259.98-27.8 258.98-27.4 258.18-34 244.58-34 244.58-17.85 256.53-17.85Q256.78-17.8 256.98-17.98 257.18-18.15 257.18-18.45L257.18-18.45 257.38-21.9 258.18-22 258.18-13.45Q258.13-13.45 257.43-13.4L257.43-13.4 257.23-16.85 244.58-16.85 244.58-1 259.53-1 260.48-9 261.43-8.75 260.68 0 247.98 0 237.93 0.05 237.98-0.65 240.58-1Q241.08-1.05 241.18-1.65L241.18-1.65 241.18-33.3Q241.08-33.9 240.58-33.95L240.58-33.95Z" opacity="1" transform="matrix(1,0,0,1,0,0)" fill="#ffffff" class="undefined-text-0" data-fill-palette-color="primary" id="text-0"></path></svg></g></svg></g></svg></g></svg></g><g><svg viewBox="0 0 129.3332266251668 129.3332266251668" height="129.3332266251668" width="129.3332266251668"><g><svg></svg></g><g id="icon-0"><svg viewBox="0 0 129.3332266251668 129.3332266251668" height="129.3332266251668" width="129.3332266251668"><g><path d="M0 64.667c0-35.714 28.952-64.667 64.667-64.667 35.714 0 64.667 28.952 64.666 64.667 0 35.714-28.952 64.667-64.666 64.666-35.714 0-64.667-28.952-64.667-64.666zM64.667 124.388c32.983 0 59.722-26.738 59.721-59.721 0-32.983-26.738-59.722-59.721-59.722-32.983 0-59.722 26.738-59.722 59.722 0 32.983 26.738 59.722 59.722 59.721z" data-fill-palette-color="tertiary" fill="#454545" stroke="transparent"></path></g><g transform="matrix(1,0,0,1,40.11479371465331,31.07897605269607)"><svg viewBox="0 0 49.10363919586017 67.17527451977465" height="67.17527451977465" width="49.10363919586017"><g><svg xmlns="http://www.w3.org/2000/svg" xmlns:xlink="http://www.w3.org/1999/xlink" version="1.1" x="0" y="0" viewBox="7.692999839782715 1.3229999542236328 34.61399841308594 47.353004455566406" enable-background="new 0 0 50 50" xml:space="preserve" height="67.17527451977465" width="49.10363919586017" class="icon-x-0" data-fill-palette-color="accent" id="x-0"><g fill="#454545" data-fill-palette-color="accent"><path fill-rule="evenodd" clip-rule="evenodd" fill="#ffffff" d="M7.693 1.323h34.614v42.783 0.482 4.088h-6.125v-4.088H13.767v4.088H7.693v-4.088-0.482V1.323L7.693 1.323zM31.076 11.157c-0.537-0.215-1.074 0.055-1.289 0.537l-3.225 7.688c-0.219 0.535 0 1.078 0.484 1.291l0.482 0.215c0.484 0.158 1.021-0.057 1.234-0.539l3.064-7.256v7.096c0 0.535 0.43 0.967 0.969 0.967h0.48c0.539 0 0.969-0.432 0.969-0.967v-8.385c0-0.537-0.43-0.967-0.969-0.967h-0.48c-0.482 0-0.861 0.32-0.969 0.752-0.055-0.105-0.215-0.16-0.322-0.215L31.076 11.157 31.076 11.157zM35.967 10.837c-0.541 0-0.969 0.43-0.969 0.967v8.385c0 0.535 0.428 0.967 0.969 0.967h0.484c0.537 0 0.965-0.432 0.965-0.967v-8.385c0-0.537-0.428-0.967-0.965-0.967H35.967L35.967 10.837zM11.727 21.692h26.498V6.429H11.727V21.692L11.727 21.692zM38.225 23.737H11.727v15.801h26.498V23.737z" data-fill-palette-color="accent"></path></g></svg></g></svg></g></svg></g></svg></g></svg></g></svg><rect width="395.52" height="92.88157026927325" fill="none" stroke="none" visibility="hidden"></rect></g></svg></g></svg>